<svg xmlns="http://www.w3.org/2000/svg" viewBox="0 0 203 203"><defs><style>.cls-1{fill:none;stroke:#5cafc1;stroke-miterlimit:10;stroke-width:3px;}.cls-2{fill:#5cafc1;}</style></defs><g id="Layer_2" data-name="Layer 2"><g id="Layer_1-2" data-name="Layer 1"><rect class="cls-1" x="1.5" y="1.5" width="200" height="200"/><path class="cls-2" d="M141.11,101.79l-2.12,6c-8.12,23.08-24.9,37.12-51.9,33.26C68,138.31,57.7,127.64,51.66,115.6l17.78-12.39c4.32,8.35,10.49,15.26,20.82,16.74,13.35,1.9,20.66-4.3,26.55-20.87Zm-34.2-4.13,18-51L79.14,40.16l7-19.93,70,10-24.86,70.15Z"/><path class="cls-2" d="M18,177.35l4.2-3.67a8.17,8.17,0,0,0,7,4.12c2.8,0,4.72-1.21,4.72-3.38,0-1.78-1.36-2.76-3.54-4l-2.84-1.71c-2.78-1.65-5.13-4.21-5.13-8.15,0-5.43,4.57-8.93,10.44-8.93a12.59,12.59,0,0,1,10.17,5.1L39,160.21A7.93,7.93,0,0,0,32.87,157c-2.11,0-3.74,1.12-3.74,3,0,1.57,1.24,2.56,2.9,3.6l3.3,2.11c3,1.93,5.27,4.05,5.27,8.17,0,6.12-5,9.41-11.16,9.41C23.93,183.33,20.18,180.8,18,177.35Z"/><path class="cls-2" d="M51.73,176.29a13.6,13.6,0,0,1,.37-3.06l1.78-8.76H47.77l.95-4.75,6.46-.27,2.38-7.12H62.8l-1.5,7.12h9.91l-1,5h-10L58.44,173a7.1,7.1,0,0,0-.2,1.8c0,2.37,1.37,3.29,3.35,3.29a10.08,10.08,0,0,0,5.17-1.68l2,4.5a17.2,17.2,0,0,1-9.09,2.44C54.09,183.33,51.73,180.57,51.73,176.29Z"/><path class="cls-2" d="M75.12,177.34a17,17,0,0,1,.39-3.49l2.89-14.4h6.43L82.1,173.07a12.09,12.09,0,0,0-.39,2.37,2.18,2.18,0,0,0,2.44,2.4c2,0,4.24-1.45,6.43-4.17l2.79-14.22h6.44l-4.59,23.32H90l.3-4h-.19c-2.32,2.31-5.63,4.57-8.93,4.57C77.26,183.33,75.12,181.21,75.12,177.34Z"/><path class="cls-2" d="M103.13,174.32c0-8.52,5.9-15.43,12.51-15.43,3.08,0,5,1.11,6.19,2.83h.1l.57-4.43,1.44-7.44h6.44l-6.64,32.92h-5.23l.09-3.21h-.18a10.93,10.93,0,0,1-7.69,3.77C106.1,183.33,103.13,180.11,103.13,174.32Zm15.85.15,1.67-8.1a4.55,4.55,0,0,0-3.86-2.22c-3.76,0-7,4-7,9.33,0,3.16,1.32,4.59,3.35,4.59C114.92,178.07,117.13,177,119,174.47Z"/><path class="cls-2" d="M138.36,176.65a11.23,11.23,0,0,1,.43-2.81l2.33-9.37h-7.69l1.06-5h14.1l-3.45,14.7a4.83,4.83,0,0,0-.19,1.22c0,1.92,1.14,2.7,2.8,2.7a9.52,9.52,0,0,0,3.66-.93l1.32,4.82a16.82,16.82,0,0,1-7,1.37C141.29,183.33,138.36,180.82,138.36,176.65Zm3.41-24.58a4.62,4.62,0,0,1,4.7-4.46c2.39,0,4.12,1.28,4.12,3.66a4.56,4.56,0,0,1-4.75,4.46C143.73,155.73,141.77,154.53,141.77,152.07Z"/><path class="cls-2" d="M159.52,173a13.7,13.7,0,0,1,13.56-14.06c6.41,0,10.32,4.12,10.32,10.38a13.7,13.7,0,0,1-13.55,14.06C163.43,183.33,159.52,179.21,159.52,173Zm17.37-3.48c0-3.4-1.66-5.32-4.29-5.32-3.38,0-6.57,3.56-6.57,8.6,0,3.4,1.66,5.32,4.29,5.32C173.71,178.07,176.89,174.51,176.89,169.47Z"/></g></g></svg>